<svg version="1.1" id="Layer_1" xmlns="http://www.w3.org/2000/svg" xmlns:xlink="http://www.w3.org/1999/xlink" x="0px" y="0px"
	 width="100%" height='100px' viewBox="0 0 500 500" enable-background="new 0 0 500 500" xml:space="preserve">
<path fill="#ffffff" opacity="0" stroke="none" 
	d="
M271.000000,501.000000 
	C180.666687,501.000000 90.833374,501.000000 1.000048,501.000000 
	C1.000032,334.333405 1.000032,167.666794 1.000016,1.000138 
	C167.666565,1.000092 334.333130,1.000092 500.999756,1.000046 
	C500.999847,167.666519 500.999847,334.333038 500.999939,500.999786 
	C424.500000,501.000000 348.000000,501.000000 271.000000,501.000000 
M383.016113,244.113480 
	C382.674011,240.796005 382.331909,237.478546 381.075623,234.019379 
	C377.808563,234.019379 374.541504,234.019379 371.000000,234.019379 
	C371.000000,236.524948 370.794769,238.517609 371.041626,240.452591 
	C371.600708,244.834824 369.911743,246.360794 365.478729,246.086563 
	C359.742035,245.731674 353.966736,245.999985 348.162994,245.999985 
	C348.162994,249.400467 348.162994,252.203430 348.406342,255.844559 
	C369.940338,255.896484 391.474335,255.956696 413.008331,255.961975 
	C413.685852,255.962128 414.363525,255.395477 415.762878,254.684296 
	C415.453400,251.780685 415.143951,248.877075 414.568848,245.147873 
	C404.036316,245.071457 393.503784,244.995041 382.976440,245.024887 
	C382.976440,245.024887 383.082794,245.022842 383.016113,244.113480 
M12.914077,302.979645 
	C16.591999,302.979645 20.269922,302.979645 23.947845,302.979645 
	C23.931458,302.513153 23.915070,302.046661 23.898684,301.580170 
	C20.546183,301.050568 17.193684,300.520966 13.976481,299.062042 
	C14.002633,267.074890 14.028786,235.087723 14.958972,203.013840 
	C17.408052,203.005280 19.861780,203.075119 22.302795,202.930435 
	C22.879782,202.896240 23.414013,202.140778 23.967901,201.717102 
	C23.398788,201.148392 22.844461,200.107132 22.258137,200.088806 
	C18.838089,199.981796 15.410536,200.114670 11.166504,200.443481 
	C11.112390,233.951370 11.052864,267.459259 11.045820,300.967133 
	C11.045689,301.590820 11.668736,302.214630 12.914077,302.979645 
M321.166138,215.420944 
	C321.166138,228.256943 321.166138,241.092957 321.166138,253.710175 
	C325.400238,253.710175 329.129242,253.710175 333.122925,253.710175 
	C333.122925,248.606323 333.122925,243.819046 334.023834,239.013275 
	C336.609009,239.013275 339.194214,239.013275 341.705536,239.013275 
	C341.705536,235.338135 341.705536,232.277969 341.705536,228.799622 
	C338.688843,228.799622 335.954956,228.799622 332.999359,228.799622 
	C332.999359,227.395798 333.006439,226.423340 332.998291,225.451004 
	C332.907318,214.601807 332.906647,214.601807 321.166138,215.420944 
M452.809021,226.021408 
	C453.538239,227.616562 454.842133,229.192245 454.896912,230.810242 
	C455.131134,237.724747 454.996704,244.651703 454.996704,251.789627 
	C459.131226,251.789627 462.848114,251.789627 466.999207,251.789627 
	C466.999207,244.675049 466.997192,237.754929 466.999664,230.834808 
	C467.003479,220.233978 464.866119,217.768097 453.656921,215.162857 
	C447.568176,215.108780 441.477692,214.947174 435.391388,215.044983 
	C432.243469,215.095581 429.102875,215.606354 425.231018,216.326096 
	C425.475220,219.249649 425.719421,222.173187 426.392883,225.851456 
	C434.928680,225.848694 443.464508,225.845932 452.809021,226.021408 
M396.584778,226.126144 
	C397.761871,231.246231 398.938965,236.366333 400.169952,241.720917 
	C403.233856,241.720917 406.963501,241.720917 410.997192,241.720917 
	C410.997192,238.144501 411.163666,234.832703 410.966766,231.542633 
	C410.313171,220.622208 406.265686,216.145218 396.643799,215.160629 
	C382.770844,215.108307 368.897919,215.043350 355.024963,215.045242 
	C354.404938,215.045334 353.784943,215.652679 353.020721,216.871948 
	C353.068451,219.586502 353.116180,222.301041 353.415497,225.849091 
	C367.562195,225.840302 381.708862,225.831497 396.584778,226.126144 
M487.565521,273.162781 
	C473.059418,273.164612 458.553314,273.166443 443.271851,273.006958 
	C442.184692,271.239258 440.441986,269.571381 440.154358,267.681976 
	C439.642242,264.317444 440.010376,260.818939 440.010376,257.244080 
	C435.797607,257.244080 432.074188,257.244080 427.977509,257.244080 
	C427.977509,261.429077 427.972565,265.381226 427.978546,269.333374 
	C427.991241,277.719116 433.283081,283.017578 441.624237,283.011963 
	C452.422180,283.004700 463.220154,283.002502 474.018097,282.999176 
	C478.609192,282.997742 483.200256,282.998901 487.833405,282.998901 
	C487.833405,279.591675 487.833405,276.789001 487.565521,273.162781 
M233.005432,272.023712 
	C232.989380,262.991913 232.422958,262.629852 220.968124,264.591522 
	C220.968124,267.311707 220.968124,270.090576 220.040970,272.985901 
	C211.099609,272.985901 202.158249,272.985901 192.497894,272.985901 
	C193.057159,276.682068 193.522583,279.758087 194.916779,282.980072 
	C216.877411,282.980072 238.838058,282.980072 260.850128,282.980072 
	C260.850128,279.623138 260.850128,276.830139 260.618256,273.189453 
	C251.426590,273.093567 242.234924,272.997681 233.005432,272.023712 
M197.161072,253.417160 
	C197.161072,256.497253 197.161072,259.577332 197.161072,263.434052 
	C203.994873,262.957214 210.552292,262.499664 217.905792,262.005249 
	C220.968201,260.963165 224.030624,259.921051 227.124176,258.868378 
	C230.063354,259.823181 233.474152,260.931213 237.306381,262.820587 
	C243.810150,262.820587 250.313919,262.820587 257.417542,262.820587 
	C256.934204,259.315063 256.511200,256.247253 255.152618,253.022400 
	C250.357574,253.014984 245.553345,253.188995 240.770233,252.946411 
	C236.450363,252.727310 233.390671,250.657837 232.970657,245.038177 
	C232.977493,236.384842 233.024414,227.731140 232.948090,219.078537 
	C232.936584,217.773849 232.350067,216.474228 231.124695,215.021744 
	C228.065536,215.071823 225.006378,215.121902 221.140884,215.467621 
	C221.153183,225.941650 221.165482,236.415695 221.006622,247.623108 
	C219.064346,249.090866 217.274734,251.499680 215.150284,251.844299 
	C209.504364,252.760162 203.714020,252.785690 197.161072,253.417160 
M284.102173,256.995117 
	C276.978210,257.844452 272.652802,263.027771 273.008789,270.288788 
	C273.362000,277.493347 278.026764,282.737549 285.224091,282.913361 
	C297.690399,283.217773 310.173859,283.196686 322.641571,282.922302 
	C329.806885,282.764618 335.068329,277.050720 334.980835,270.427582 
	C334.881653,262.917603 329.930786,257.299622 322.689453,256.178619 
	C310.757477,256.116364 298.825470,256.038391 286.893463,256.033508 
	C286.225555,256.033264 285.557343,256.636230 284.102173,256.995117 
M80.994614,245.893494 
	C81.774620,244.662872 82.264679,242.933487 83.382370,242.283722 
	C89.958908,238.460388 96.586914,234.698486 103.392258,231.306458 
	C107.221649,229.397766 107.310822,227.611160 104.268890,224.870316 
	C95.698273,229.506195 87.195580,234.161819 78.618057,238.675232 
	C77.514870,239.255737 75.981987,239.400635 74.718987,239.228287 
	C70.083748,238.595734 65.323227,236.596313 60.891579,237.195389 
	C48.749409,238.836746 45.548523,240.098480 45.926212,251.621628 
	C45.985039,253.416367 45.542030,256.010040 44.338554,256.916382 
	C40.780899,259.595703 41.376720,261.133209 44.778973,263.199127 
	C45.491695,263.631897 45.614407,265.983948 45.159351,267.107422 
	C44.759495,268.094574 43.169643,268.599731 41.816452,269.512665 
	C42.488983,270.719299 42.820206,272.295624 43.717197,272.746552 
	C46.957813,274.375702 50.277508,276.198822 53.775291,276.878448 
	C58.401443,277.777313 63.219299,277.846588 67.961929,277.952820 
	C75.434608,278.120331 82.487617,273.458221 81.012527,265.213745 
	C80.462601,262.140167 81.705513,260.768005 84.951508,259.829987 
	C93.110550,257.472260 101.071754,254.429886 109.065216,251.678207 
	C107.597176,246.109375 107.552345,246.133072 103.007820,248.434052 
	C101.583237,249.155334 99.966232,249.508377 98.421776,249.979019 
	C92.654175,251.736511 86.880142,253.472916 80.993950,255.251846 
	C80.993950,252.431046 80.993950,249.605530 80.994614,245.893494 
M386.484131,257.995544 
	C377.771423,258.327820 369.007111,258.190613 360.362305,259.140594 
	C353.416229,259.903900 351.285370,264.332764 351.986847,273.632599 
	C352.337341,278.279480 357.023804,282.872192 362.269348,282.948944 
	C375.058289,283.136169 387.854034,283.135468 400.642548,282.930573 
	C405.259918,282.856598 409.872040,280.690399 410.646698,276.096741 
	C411.496185,271.059692 412.877258,265.048126 407.456909,261.045319 
	C406.206543,260.121979 404.652191,259.236145 403.160278,259.081726 
	C397.950623,258.542633 392.707031,258.331390 386.484131,257.995544 
M298.992188,218.896561 
	C297.935059,217.933182 296.977234,216.316803 295.800842,216.137924 
	C293.079315,215.724136 290.252014,216.006393 286.993408,216.006393 
	C286.993408,223.151627 286.928925,229.918961 287.018890,236.684235 
	C287.068665,240.427353 285.436279,242.134323 281.669769,242.010345 
	C278.231018,241.897156 274.785583,241.986359 271.252625,241.986359 
	C271.252625,245.539871 271.252625,248.600449 271.252625,252.066986 
	C278.943054,251.313934 286.925690,254.342590 293.148315,247.880875 
	C298.169281,252.396118 305.006989,253.436905 314.672424,251.401825 
	C314.672424,248.305573 314.672424,245.241180 314.672424,241.986145 
	C311.207336,241.986145 308.056580,241.843613 304.923981,242.021210 
	C300.747742,242.257965 298.812317,240.618195 298.955994,236.283463 
	C299.137543,230.805466 298.998230,225.316803 298.992188,218.896561 
M476.000000,230.503632 
	C476.000000,241.255890 476.000000,252.008133 476.000000,262.665497 
	C480.012512,262.665497 483.405853,262.665497 487.242615,262.665497 
	C487.242615,255.932465 487.242615,249.527557 487.242615,242.698456 
	C490.773865,242.698456 493.844940,242.698456 496.776672,242.698456 
	C496.776672,239.633514 496.776672,237.020386 496.776672,233.956573 
	C493.495087,233.956573 490.426422,233.956573 486.912415,233.956573 
	C486.912415,227.441696 486.912415,221.370453 486.912415,215.300446 
	C483.052856,215.300446 479.661133,215.300446 476.000000,215.300446 
	C476.000000,220.233902 476.000000,224.869598 476.000000,230.503632 
M130.826035,202.971573 
	C132.758560,202.971573 134.691101,202.971573 136.716827,202.971573 
	C136.716827,235.517670 136.716827,267.539856 136.716827,299.969299 
	C133.408707,299.969299 130.323639,299.969299 127.153542,299.969299 
	C127.940849,303.384094 130.580597,303.831543 139.754547,302.453491 
	C139.754547,268.462189 139.754547,234.450699 139.754547,200.434601 
	C135.384109,200.434601 131.255997,200.434601 127.127884,200.434601 
	C127.017754,200.768356 126.907623,201.102127 126.797493,201.435883 
	C127.841614,201.946274 128.885742,202.456665 130.826035,202.971573 
z"/>
<path fill="#F88B6A" opacity="1.000000" stroke="none" 
	d="
M80.994278,246.336761 
	C80.993950,249.605530 80.993950,252.431046 80.993950,255.251846 
	C86.880142,253.472916 92.654175,251.736511 98.421776,249.979019 
	C99.966232,249.508377 101.583237,249.155334 103.007820,248.434052 
	C107.552345,246.133072 107.597176,246.109375 109.065216,251.678207 
	C101.071754,254.429886 93.110550,257.472260 84.951508,259.829987 
	C81.705513,260.768005 80.462601,262.140167 81.012527,265.213745 
	C82.487617,273.458221 75.434608,278.120331 67.961929,277.952820 
	C63.219299,277.846588 58.401443,277.777313 53.775291,276.878448 
	C50.277508,276.198822 46.957813,274.375702 43.717197,272.746552 
	C42.820206,272.295624 42.488983,270.719299 41.816452,269.512665 
	C43.169643,268.599731 44.759495,268.094574 45.159351,267.107422 
	C45.614407,265.983948 45.491695,263.631897 44.778973,263.199127 
	C41.376720,261.133209 40.780899,259.595703 44.338554,256.916382 
	C45.542030,256.010040 45.985039,253.416367 45.926212,251.621628 
	C45.548523,240.098480 48.749409,238.836746 60.891579,237.195389 
	C65.323227,236.596313 70.083748,238.595734 74.718987,239.228287 
	C75.981987,239.400635 77.514870,239.255737 78.618057,238.675232 
	C87.195580,234.161819 95.698273,229.506195 104.268890,224.870316 
	C107.310822,227.611160 107.221649,229.397766 103.392258,231.306458 
	C96.586914,234.698486 89.958908,238.460388 83.382370,242.283722 
	C82.264679,242.933487 81.774620,244.662872 80.994278,246.336761 
M56.260838,263.924774 
	C60.756268,262.272919 65.150444,260.208069 69.772980,259.074615 
	C75.442123,257.684540 75.524689,258.021271 74.564171,253.222321 
	C66.976013,253.222321 59.541397,253.222321 52.089294,253.222321 
	C52.089294,256.735901 52.089294,260.540680 52.089294,264.363708 
	C53.271603,264.222198 54.357159,264.092224 56.260838,263.924774 
M56.729740,269.087067 
	C55.483284,269.624207 54.236828,270.161377 52.470921,270.922394 
	C58.128433,274.847198 63.616467,273.809784 69.008560,272.464813 
	C75.416054,270.866547 75.641678,270.301727 74.472076,263.379303 
	C68.819130,265.255157 63.178020,267.127106 56.729740,269.087067 
M58.511227,242.913528 
	C56.255592,243.668747 53.999954,244.423950 51.744320,245.179169 
	C59.829315,250.381546 67.367828,249.760101 75.634445,245.651703 
	C70.050964,242.152863 64.784500,241.388672 58.511227,242.913528 
z"/>
<path fill="#FF9A7D" opacity="1.000000" stroke="none" 
	d="
M323.111511,256.958740 
	C329.930786,257.299622 334.881653,262.917603 334.980835,270.427582 
	C335.068329,277.050720 329.806885,282.764618 322.641571,282.922302 
	C310.173859,283.196686 297.690399,283.217773 285.224091,282.913361 
	C278.026764,282.737549 273.362000,277.493347 273.008789,270.288788 
	C272.652802,263.027771 276.978210,257.844452 284.970398,257.005371 
	C298.262909,256.996704 310.687225,256.977722 323.111511,256.958740 
M288.710510,273.602936 
	C294.108124,273.734894 299.507751,274.023376 304.902740,273.953186 
	C309.932281,273.887817 314.956848,273.441010 320.642975,272.859161 
	C321.406921,271.504364 323.094360,269.298370 322.770081,268.946564 
	C321.562164,267.636108 319.763763,266.326843 318.058624,266.130249 
	C314.456116,265.714905 310.772766,265.999329 307.122589,265.999176 
	C301.481384,265.998962 295.817627,265.717957 290.211914,266.164490 
	C288.398956,266.308929 286.738312,268.365082 285.007996,269.546783 
	C286.010742,270.751923 287.013489,271.957031 288.710510,273.602936 
z"/>
<path fill="#FF9A7D" opacity="1.000000" stroke="none" 
	d="
M386.980225,257.995544 
	C392.707031,258.331390 397.950623,258.542633 403.160278,259.081726 
	C404.652191,259.236145 406.206543,260.121979 407.456909,261.045319 
	C412.877258,265.048126 411.496185,271.059692 410.646698,276.096741 
	C409.872040,280.690399 405.259918,282.856598 400.642548,282.930573 
	C387.854034,283.135468 375.058289,283.136169 362.269348,282.948944 
	C357.023804,282.872192 352.337341,278.279480 351.986847,273.632599 
	C351.285370,264.332764 353.416229,259.903900 360.362305,259.140594 
	C369.007111,258.190613 377.771423,258.327820 386.980225,257.995544 
M366.699219,273.598236 
	C371.177521,273.731750 375.658844,274.035370 380.133423,273.956848 
	C386.072510,273.852661 392.006378,273.450256 398.600586,272.884888 
	C401.006104,270.257294 399.696167,268.822754 396.284058,267.404694 
	C386.196381,267.549316 376.108734,267.693909 365.227142,267.998383 
	C363.537933,270.010437 362.330048,271.950195 366.699219,273.598236 
z"/>
<path fill="#FF9A7D" opacity="1.000000" stroke="none" 
	d="
M232.829803,245.960266 
	C233.390671,250.657837 236.450363,252.727310 240.770233,252.946411 
	C245.553345,253.188995 250.357574,253.014984 255.614532,253.543365 
	C255.972595,262.716125 256.973114,261.977783 247.880112,262.012665 
	C244.215073,262.026703 240.550003,262.030670 236.884949,262.039215 
	C233.474152,260.931213 230.063354,259.823181 227.124176,258.868378 
	C224.030624,259.921051 220.968201,260.963165 217.033325,261.995789 
	C213.006500,261.995392 209.851990,262.028992 206.697800,262.009033 
	C196.629639,261.945343 198.174011,262.922058 197.981110,253.165314 
	C203.714020,252.785690 209.504364,252.760162 215.150284,251.844299 
	C217.274734,251.499680 219.064346,249.090866 221.300659,246.913528 
	C221.712204,235.859955 221.829712,225.515976 221.947220,215.171982 
	C225.006378,215.121902 228.065536,215.071823 231.573334,215.554718 
	C232.019684,219.863312 231.920700,223.641876 232.037003,227.413834 
	C232.227707,233.598236 232.558228,239.778351 232.829803,245.960266 
z"/>
<path fill="#FF997C" opacity="1.000000" stroke="none" 
	d="
M348.162994,255.006378 
	C348.162994,252.203430 348.162994,249.400467 348.162994,245.999985 
	C353.966736,245.999985 359.742035,245.731674 365.478729,246.086563 
	C369.911743,246.360794 371.600708,244.834824 371.041626,240.452591 
	C370.794769,238.517609 371.000000,236.524948 371.000000,234.019379 
	C374.541504,234.019379 377.808563,234.019379 381.528503,234.533447 
	C382.348541,238.372620 382.715668,241.697739 383.082825,245.022842 
	C383.082794,245.022842 382.976440,245.024887 383.267731,245.274811 
	C393.984161,245.674301 404.409332,245.823883 414.834473,245.973465 
	C415.143951,248.877075 415.453400,251.780685 414.933472,254.854156 
	C392.123718,255.018127 370.143372,255.012253 348.162994,255.006378 
z"/>
<path fill="#FF9A7E" opacity="1.000000" stroke="none" 
	d="
M298.994751,219.364655 
	C298.998230,225.316803 299.137543,230.805466 298.955994,236.283463 
	C298.812317,240.618195 300.747742,242.257965 304.923981,242.021210 
	C308.056580,241.843613 311.207336,241.986145 314.672424,241.986145 
	C314.672424,245.241180 314.672424,248.305573 314.672424,251.401825 
	C305.006989,253.436905 298.169281,252.396118 293.148315,247.880875 
	C286.925690,254.342590 278.943054,251.313934 271.252625,252.066986 
	C271.252625,248.600449 271.252625,245.539871 271.252625,241.986359 
	C274.785583,241.986359 278.231018,241.897156 281.669769,242.010345 
	C285.436279,242.134323 287.068665,240.427353 287.018890,236.684235 
	C286.928925,229.918961 286.993408,223.151627 286.993408,216.006393 
	C290.252014,216.006393 293.079315,215.724136 295.800842,216.137924 
	C296.977234,216.316803 297.935059,217.933182 298.994751,219.364655 
z"/>
<path fill="#FF997C" opacity="1.000000" stroke="none" 
	d="
M260.850128,274.037170 
	C260.850128,276.830139 260.850128,279.623138 260.850128,282.980072 
	C238.838058,282.980072 216.877411,282.980072 194.455444,282.464905 
	C194.016586,274.001831 194.016586,274.001617 202.025726,274.000092 
	C205.153763,273.999481 208.290680,274.147003 211.407394,273.959137 
	C214.604584,273.766418 217.782028,273.246307 220.968124,272.869446 
	C220.968124,270.090576 220.968124,267.311707 220.968124,264.591522 
	C232.422958,262.629852 232.989380,262.991913 233.330444,272.740051 
	C242.720337,273.649994 251.785233,273.843597 260.850128,274.037170 
z"/>
<path fill="#FF9A7D" opacity="1.000000" stroke="none" 
	d="
M487.833405,273.986328 
	C487.833405,276.789001 487.833405,279.591675 487.833405,282.998901 
	C483.200256,282.998901 478.609192,282.997742 474.018097,282.999176 
	C463.220154,283.002502 452.422180,283.004700 441.624237,283.011963 
	C433.283081,283.017578 427.991241,277.719116 427.978546,269.333374 
	C427.972565,265.381226 427.977509,261.429077 427.977509,257.244080 
	C432.074188,257.244080 435.797607,257.244080 440.010376,257.244080 
	C440.010376,260.818939 439.642242,264.317444 440.154358,267.681976 
	C440.441986,269.571381 442.184692,271.239258 444.004883,273.305511 
	C459.103058,273.731476 473.468231,273.858917 487.833405,273.986328 
z"/>
<path fill="#FF9A7D" opacity="1.000000" stroke="none" 
	d="
M397.066711,215.928162 
	C406.265686,216.145218 410.313171,220.622208 410.966766,231.542633 
	C411.163666,234.832703 410.997192,238.144501 410.997192,241.720917 
	C406.963501,241.720917 403.233856,241.720917 400.169952,241.720917 
	C398.938965,236.366333 397.761871,231.246231 395.883911,225.758560 
	C381.176697,225.265854 367.170319,225.140717 353.163940,225.015594 
	C353.116180,222.301041 353.068451,219.586502 353.550903,216.429169 
	C368.409637,215.966995 382.738190,215.947586 397.066711,215.928162 
z"/>
<path fill="#FF9A7D" opacity="1.000000" stroke="none" 
	d="
M454.076660,215.935303 
	C464.866119,217.768097 467.003479,220.233978 466.999664,230.834808 
	C466.997192,237.754929 466.999207,244.675049 466.999207,251.789627 
	C462.848114,251.789627 459.131226,251.789627 454.996704,251.789627 
	C454.996704,244.651703 455.131134,237.724747 454.896912,230.810242 
	C454.842133,229.192245 453.538239,227.616562 452.058167,225.704071 
	C442.859406,225.290054 434.411499,225.193405 425.963593,225.096741 
	C425.719421,222.173187 425.475220,219.249649 426.063721,216.146652 
	C435.956512,215.956573 445.016571,215.945938 454.076660,215.935303 
z"/>
<path fill="#FF997C" opacity="1.000000" stroke="none" 
	d="
M476.000000,230.004456 
	C476.000000,224.869598 476.000000,220.233902 476.000000,215.300446 
	C479.661133,215.300446 483.052856,215.300446 486.912415,215.300446 
	C486.912415,221.370453 486.912415,227.441696 486.912415,233.956573 
	C490.426422,233.956573 493.495087,233.956573 496.776672,233.956573 
	C496.776672,237.020386 496.776672,239.633514 496.776672,242.698456 
	C493.844940,242.698456 490.773865,242.698456 487.242615,242.698456 
	C487.242615,249.527557 487.242615,255.932465 487.242615,262.665497 
	C483.405853,262.665497 480.012512,262.665497 476.000000,262.665497 
	C476.000000,252.008133 476.000000,241.255890 476.000000,230.004456 
z"/>
<path fill="#FF9A7D" opacity="1.000000" stroke="none" 
	d="
M321.996002,215.163162 
	C332.906647,214.601807 332.907318,214.601807 332.998291,225.451004 
	C333.006439,226.423340 332.999359,227.395798 332.999359,228.799622 
	C335.954956,228.799622 338.688843,228.799622 341.705536,228.799622 
	C341.705536,232.277969 341.705536,235.338135 341.705536,239.013275 
	C339.194214,239.013275 336.609009,239.013275 333.291687,239.325607 
	C332.371552,242.434540 331.852142,245.257645 332.073151,248.021545 
	C332.406006,252.183716 330.517639,253.041809 326.794495,253.060165 
	C323.060608,253.078552 321.884399,251.772446 321.943359,248.109802 
	C322.120087,237.130157 322.000153,226.145721 321.996002,215.163162 
z"/>
<path fill="#F99C81" opacity="1.000000" stroke="none" 
	d="
M130.377960,202.969315 
	C128.885742,202.456665 127.841614,201.946274 126.797493,201.435883 
	C126.907623,201.102127 127.017754,200.768356 127.127884,200.434601 
	C131.255997,200.434601 135.384109,200.434601 139.754547,200.434601 
	C139.754547,234.450699 139.754547,268.462189 139.754547,302.453491 
	C130.580597,303.831543 127.940849,303.384094 127.153542,299.969299 
	C130.323639,299.969299 133.408707,299.969299 136.716827,299.969299 
	C136.716827,267.539856 136.716827,235.517670 136.716827,202.971573 
	C134.691101,202.971573 132.758560,202.971573 130.377960,202.969315 
z"/>
<path fill="#F88B6A" opacity="1.000000" stroke="none" 
	d="
M13.841183,299.991394 
	C17.193684,300.520966 20.546183,301.050568 23.898684,301.580170 
	C23.915070,302.046661 23.931458,302.513153 23.947845,302.979645 
	C20.269922,302.979645 16.591999,302.979645 12.455416,302.450745 
	C11.993010,268.003387 11.989264,234.084961 11.985518,200.166534 
	C15.410536,200.114670 18.838089,199.981796 22.258137,200.088806 
	C22.844461,200.107132 23.398788,201.148392 23.967907,201.717102 
	C23.414013,202.140778 22.879782,202.896240 22.302795,202.930435 
	C19.861780,203.075119 17.408052,203.005280 14.225403,203.054169 
	C13.333759,203.876541 13.038073,204.658463 13.037467,205.440613 
	C13.014161,235.519455 13.006520,265.598328 13.052946,295.677094 
	C13.055166,297.115601 13.566784,298.553314 13.841183,299.991394 
z"/>
<path fill="#FAA48A" opacity="1.000000" stroke="none" 
	d="
M11.576011,200.305008 
	C11.989264,234.084961 11.993010,268.003387 11.998888,302.380096 
	C11.668736,302.214630 11.045689,301.590820 11.045820,300.967133 
	C11.052864,267.459259 11.112390,233.951370 11.576011,200.305008 
z"/>
<path fill="#FAA48A" opacity="1.000000" stroke="none" 
	d="
M13.908831,299.526733 
	C13.566784,298.553314 13.055166,297.115601 13.052946,295.677094 
	C13.006520,265.598328 13.014161,235.519455 13.037467,205.440613 
	C13.038073,204.658463 13.333759,203.876541 13.773386,203.097534 
	C14.028786,235.087723 14.002633,267.074890 13.908831,299.526733 
z"/>
<path fill="#FFD6CB" opacity="1.000000" stroke="none" 
	d="
M348.284668,255.425476 
	C370.143372,255.012253 392.123718,255.018127 414.572601,255.058548 
	C414.363525,255.395477 413.685852,255.962128 413.008331,255.961975 
	C391.474335,255.956696 369.940338,255.896484 348.284668,255.425476 
z"/>
<path fill="#FFB19B" opacity="1.000000" stroke="none" 
	d="
M321.581055,215.292053 
	C322.000153,226.145721 322.120087,237.130157 321.943359,248.109802 
	C321.884399,251.772446 323.060608,253.078552 326.794495,253.060165 
	C330.517639,253.041809 332.406006,252.183716 332.073151,248.021545 
	C331.852142,245.257645 332.371552,242.434540 332.841217,239.334854 
	C333.122925,243.819046 333.122925,248.606323 333.122925,253.710175 
	C329.129242,253.710175 325.400238,253.710175 321.166138,253.710175 
	C321.166138,241.092957 321.166138,228.256943 321.581055,215.292053 
z"/>
<path fill="#FFB19B" opacity="1.000000" stroke="none" 
	d="
M487.699463,273.574554 
	C473.468231,273.858917 459.103058,273.731476 444.392548,273.386169 
	C458.553314,273.166443 473.059418,273.164612 487.699463,273.574554 
z"/>
<path fill="#FFD1C4" opacity="1.000000" stroke="none" 
	d="
M396.855255,215.544403 
	C382.738190,215.947586 368.409637,215.966995 353.623016,215.981781 
	C353.784943,215.652679 354.404938,215.045334 355.024963,215.045242 
	C368.897919,215.043350 382.770844,215.108307 396.855255,215.544403 
z"/>
<path fill="#FFD6CB" opacity="1.000000" stroke="none" 
	d="
M353.289734,225.432343 
	C367.170319,225.140717 381.176697,225.265854 395.519318,225.606842 
	C381.708862,225.831497 367.562195,225.840302 353.289734,225.432343 
z"/>
<path fill="#FFC4B3" opacity="1.000000" stroke="none" 
	d="
M322.900482,256.568665 
	C310.687225,256.977722 298.262909,256.996704 285.363953,256.987030 
	C285.557343,256.636230 286.225555,256.033264 286.893463,256.033508 
	C298.825470,256.038391 310.757477,256.116364 322.900482,256.568665 
z"/>
<path fill="#FFB19B" opacity="1.000000" stroke="none" 
	d="
M220.504547,272.927673 
	C217.782028,273.246307 214.604584,273.766418 211.407394,273.959137 
	C208.290680,274.147003 205.153763,273.999481 202.025726,274.000092 
	C194.016586,274.001617 194.016586,274.001831 193.991058,282.391937 
	C193.522583,279.758087 193.057159,276.682068 192.497894,272.985901 
	C202.158249,272.985901 211.099609,272.985901 220.504547,272.927673 
z"/>
<path fill="#FFD1C4" opacity="1.000000" stroke="none" 
	d="
M414.701660,245.560669 
	C404.409332,245.823883 393.984161,245.674301 383.265137,245.221680 
	C393.503784,244.995041 404.036316,245.071457 414.701660,245.560669 
z"/>
<path fill="#FFC4B3" opacity="1.000000" stroke="none" 
	d="
M221.544052,215.319794 
	C221.829712,225.515976 221.712204,235.859955 221.386230,246.546844 
	C221.165482,236.415695 221.153183,225.941650 221.544052,215.319794 
z"/>
<path fill="#FFB19B" opacity="1.000000" stroke="none" 
	d="
M232.900238,245.499222 
	C232.558228,239.778351 232.227707,233.598236 232.037003,227.413834 
	C231.920700,223.641876 232.019684,219.863312 232.025757,215.629990 
	C232.350067,216.474228 232.936584,217.773849 232.948090,219.078537 
	C233.024414,227.731140 232.977493,236.384842 232.900238,245.499222 
z"/>
<path fill="#FFC4B3" opacity="1.000000" stroke="none" 
	d="
M237.095673,262.429901 
	C240.550003,262.030670 244.215073,262.026703 247.880112,262.012665 
	C256.973114,261.977783 255.972595,262.716125 256.082336,253.621872 
	C256.511200,256.247253 256.934204,259.315063 257.417542,262.820587 
	C250.313919,262.820587 243.810150,262.820587 237.095673,262.429901 
z"/>
<path fill="#FFC4B3" opacity="1.000000" stroke="none" 
	d="
M197.571091,253.291229 
	C198.174011,262.922058 196.629639,261.945343 206.697800,262.009033 
	C209.851990,262.028992 213.006500,261.995392 216.635284,262.014221 
	C210.552292,262.499664 203.994873,262.957214 197.161072,263.434052 
	C197.161072,259.577332 197.161072,256.497253 197.571091,253.291229 
z"/>
<path fill="#FFD1C4" opacity="1.000000" stroke="none" 
	d="
M453.866791,215.549072 
	C445.016571,215.945938 435.956512,215.956573 426.427704,215.938202 
	C429.102875,215.606354 432.243469,215.095581 435.391388,215.044983 
	C441.477692,214.947174 447.568176,215.108780 453.866791,215.549072 
z"/>
<path fill="#FFB19B" opacity="1.000000" stroke="none" 
	d="
M260.734192,273.613342 
	C251.785233,273.843597 242.720337,273.649994 233.349350,273.179108 
	C242.234924,272.997681 251.426590,273.093567 260.734192,273.613342 
z"/>
<path fill="#FFD6CB" opacity="1.000000" stroke="none" 
	d="
M426.178223,225.474106 
	C434.411499,225.193405 442.859406,225.290054 451.653809,225.614944 
	C443.464508,225.845932 434.928680,225.848694 426.178223,225.474106 
z"/>
<path fill="#FFD1C4" opacity="1.000000" stroke="none" 
	d="
M383.049469,244.568161 
	C382.715668,241.697739 382.348541,238.372620 381.985596,234.604294 
	C382.331909,237.478546 382.674011,240.796005 383.049469,244.568161 
z"/>
<path fill="#ffffff" opacity="0" stroke="none" 
	d="
M55.851776,263.943542 
	C54.357159,264.092224 53.271603,264.222198 52.089294,264.363708 
	C52.089294,260.540680 52.089294,256.735901 52.089294,253.222321 
	C59.541397,253.222321 66.976013,253.222321 74.564171,253.222321 
	C75.524689,258.021271 75.442123,257.684540 69.772980,259.074615 
	C65.150444,260.208069 60.756268,262.272919 55.851776,263.943542 
z"/>
<path fill="#ffffff" opacity="0" stroke="none" 
	d="
M57.133324,269.043030 
	C63.178020,267.127106 68.819130,265.255157 74.472076,263.379303 
	C75.641678,270.301727 75.416054,270.866547 69.008560,272.464813 
	C63.616467,273.809784 58.128433,274.847198 52.470921,270.922394 
	C54.236828,270.161377 55.483284,269.624207 57.133324,269.043030 
z"/>
<path fill="#ffffff" opacity="0" stroke="none" 
	d="
M58.840332,242.629974 
	C64.784500,241.388672 70.050964,242.152863 75.634445,245.651703 
	C67.367828,249.760101 59.829315,250.381546 51.744320,245.179169 
	C53.999954,244.423950 56.255592,243.668747 58.840332,242.629974 
z"/>
<path fill="#ffffff" opacity="0" stroke="none" 
	d="
M288.016266,273.162140 
	C287.013489,271.957031 286.010742,270.751923 285.007996,269.546783 
	C286.738312,268.365082 288.398956,266.308929 290.211914,266.164490 
	C295.817627,265.717957 301.481384,265.998962 307.122589,265.999176 
	C310.772766,265.999329 314.456116,265.714905 318.058624,266.130249 
	C319.763763,266.326843 321.562164,267.636108 322.770081,268.946564 
	C323.094360,269.298370 321.406921,271.504364 319.849976,272.938782 
	C308.710083,273.066284 298.363190,273.114197 288.016266,273.162140 
z"/>
<path fill="#FFB19B" opacity="1.000000" stroke="none" 
	d="
M288.363403,273.382538 
	C298.363190,273.114197 308.710083,273.066284 319.520325,273.090271 
	C314.956848,273.441010 309.932281,273.887817 304.902740,273.953186 
	C299.507751,274.023376 294.108124,273.734894 288.363403,273.382538 
z"/>
<path fill="#ffffff" opacity="0" stroke="none" 
	d="
M396.980530,267.839569 
	C399.696167,268.822754 401.006104,270.257294 397.813202,272.955322 
	C386.684540,273.069489 376.343262,273.113251 366.001984,273.156982 
	C362.330048,271.950195 363.537933,270.010437 366.085999,267.993622 
	C376.956757,267.939117 386.968628,267.889343 396.980530,267.839569 
z"/>
<path fill="#FFB19B" opacity="1.000000" stroke="none" 
	d="
M366.350586,273.377625 
	C376.343262,273.113251 386.684540,273.069489 397.484131,273.100891 
	C392.006378,273.450256 386.072510,273.852661 380.133423,273.956848 
	C375.658844,274.035370 371.177521,273.731750 366.350586,273.377625 
z"/>
<path fill="#FAA48A" opacity="1.000000" stroke="none" 
	d="
M396.632294,267.622131 
	C386.968628,267.889343 376.956757,267.939117 366.482971,267.913696 
	C376.108734,267.693909 386.196381,267.549316 396.632294,267.622131 
z"/>
</svg>